# xmcd
#
# Track frame offsets:
#	150
#	20480
#	36070
#	46389
#	61713
#	74930
#	92569
#	106442
#	123453
#	141833
#
# Disc length: 2065 seconds
#
# Revision: 0
# Processed by: cddbd v1.5.2PL0 Copyright (c) Steve Scherf et al.
# Submitted via: EasyCDDAExtractor 2010.6.0.0
#
DISCID=8d080f0a
DTITLE=Jimmy Raschel and Longshot - From Across the Tracks
DYEAR=2004
DGENRE=Blues
TTITLE0=Killer Miller
TTITLE1=Just for a Song
TTITLE2=Nightimes Wastin'
TTITLE3=Marianne
TTITLE4=Glory Bound
TTITLE5=Father to Son
TTITLE6=Your Ways
TTITLE7=She
TTITLE8=Outside of Love
TTITLE9=Moondust
EXTD=
EXTT0=
EXTT1=
EXTT2=
EXTT3=
EXTT4=
EXTT5=
EXTT6=
EXTT7=
EXTT8=
EXTT9=
PLAYORDER=
